<?xml version="1.0" encoding="UTF-8"?>
<svg id="_圖層_1" data-name="圖層_1" xmlns="http://www.w3.org/2000/svg" version="1.1" viewBox="0 0 288 512">
  <!-- Generator: Adobe Illustrator 29.4.0, SVG Export Plug-In . SVG Version: 2.1.0 Build 152)  -->
  <defs>
    <style>
      .st0 {
        fill: #415a77;
      }
    </style>
  </defs>
  <path class="st0" d="M112,316.9v156.7l22,33c4.8,7.1,15.2,7.1,20,0l22-33v-156.7c-10.4,1.9-21.1,3.1-32,3.1s-21.6-1.1-32-3.1ZM144,0C64.5,0,0,64.5,0,144s64.5,144,144,144,144-64.5,144-144S223.5,0,144,0ZM144,76c-37.5,0-68,30.5-68,68s-5.4,12-12,12-12-5.4-12-12c0-50.7,41.3-92,92-92s12,5.4,12,12-5.4,12-12,12Z"/>
</svg>